<?xml version="1.0" encoding="UTF-8"?>
<svg xmlns="http://www.w3.org/2000/svg" xmlns:xlink="http://www.w3.org/1999/xlink" viewBox="0 0 178.782 178.782">
  <defs>
    <style>
      .cls-1 {
        mix-blend-mode: color-dodge;
        opacity: .25;
      }

      .cls-1, .cls-2 {
        fill: #0fe;
      }

      .cls-3 {
        mask: url(#mask-1);
      }

      .cls-4 {
        fill: url(#_Безымянный_градиент_77);
        mix-blend-mode: multiply;
      }

      .cls-5 {
        mask: url(#mask);
      }

      .cls-6 {
        isolation: isolate;
      }

      .cls-7 {
        fill: #ff0049;
      }

      .cls-8 {
        filter: url(#luminosity-noclip);
      }
    </style>
    <filter id="luminosity-noclip" x="48.669" y="48.65" width="81.409" height="81.481" color-interpolation-filters="sRGB" filterUnits="userSpaceOnUse">
      <feFlood flood-color="#fff" result="bg"/>
      <feBlend in="SourceGraphic" in2="bg"/>
    </filter>
    <filter id="luminosity-noclip-2" x="48.669" y="-8442" width="81.409" height="32766" color-interpolation-filters="sRGB" filterUnits="userSpaceOnUse">
      <feFlood flood-color="#fff" result="bg"/>
      <feBlend in="SourceGraphic" in2="bg"/>
    </filter>
    <mask id="mask-1" x="48.669" y="-8442" width="81.409" height="32766" maskUnits="userSpaceOnUse"/>
    <radialGradient id="_Безымянный_градиент_77" data-name="Безымянный градиент 77" cx="89.373" cy="89.426" fx="89.373" fy="89.426" r="40.704" gradientUnits="userSpaceOnUse">
      <stop offset="0" stop-color="#fff"/>
      <stop offset=".291" stop-color="#fcfcfc"/>
      <stop offset=".428" stop-color="#f5f5f5"/>
      <stop offset=".534" stop-color="#e8e8e8"/>
      <stop offset=".623" stop-color="#d5d5d5"/>
      <stop offset=".702" stop-color="#bebebe"/>
      <stop offset=".773" stop-color="#a0a0a0"/>
      <stop offset=".839" stop-color="#7d7d7d"/>
      <stop offset=".901" stop-color="#545454"/>
      <stop offset=".957" stop-color="#282828"/>
      <stop offset="1" stop-color="#000"/>
    </radialGradient>
    <mask id="mask" x="48.669" y="48.65" width="81.409" height="81.481" maskUnits="userSpaceOnUse">
      <g class="cls-8">
        <g class="cls-3">
          <path class="cls-4" d="M99.308,49.953c-.231-.063-.468-.121-.7-.174-.237-.058-.473-.106-.71-.155-2.753-.594-5.602-.903-8.528-.903s-5.775.309-8.528.903c-.236.048-.473.097-.705.155-.236.053-.473.111-.705.174-17.659,4.443-30.764,20.46-30.764,39.476,0,7.446,2.009,14.433,5.514,20.44.121.212.246.42.372.623.125.208.251.415.381.618.749,1.188,1.56,2.332,2.425,3.433.366.463.738.922,1.125,1.367,1.762,2.057,3.728,3.931,5.862,5.601.009.005.019.014.029.019l.005.005c.647.507,1.323.999,2.004,1.463.005.005.01.005.015.01,0,.005.005.005.005.005.439.304.884.599,1.337.879.203.136.41.261.618.386,6.137,3.714,13.327,5.853,21.01,5.853s14.877-2.139,21.015-5.853c.208-.126.41-.251.613-.386.203-.121.405-.251.608-.391,3.926-2.564,7.383-5.79,10.208-9.522.594-.783,1.159-1.584,1.695-2.41.13-.135.266-.266.41-.391l-.111-.072c.13-.203.256-.405.381-.613.126-.203.246-.41.367-.623,3.506-6.007,5.52-12.994,5.52-20.44,0-19.016-13.11-35.033-30.769-39.476Z"/>
        </g>
      </g>
    </mask>
  </defs>
  <g class="cls-6">
    <g id="Layer_1" data-name="Layer 1">
      <g>
        <g>
          <g>
            <path class="cls-7" d="M104.685,110.527c-1.968-2.389-4.023-4.697-6.104-6.978-1.041-1.137-2.108-2.248-3.162-3.372l-3.243-3.298-2.766-2.81-2.776,2.82c-2.161,2.195-4.301,4.417-6.381,6.7-2.073,2.282-4.106,4.611-6.072,7-1.966,2.396-3.885,4.839-5.716,7.368-1.818,2.536-3.596,5.12-5.172,7.904,2.778-1.587,5.355-3.374,7.885-5.201,2.523-1.841,4.959-3.768,7.348-5.736,2.389-1.975,4.704-4.023,6.978-6.104,1.325-1.215,2.622-2.451,3.907-3.693l.544.528c1.134,1.05,2.242,2.12,3.39,3.157,2.282,2.073,4.605,4.113,7.001,6.079,2.389,1.966,4.839,3.878,7.368,5.709,2.536,1.818,5.119,3.596,7.91,5.166-1.58-2.778-3.367-5.362-5.194-7.891-1.841-2.523-3.769-4.959-5.743-7.347ZM101.615,113.334c-2.067-1.691-4.262-3.604-6.927-6.012-.718-.655-1.45-1.344-2.155-2.006-.396-.375-.792-.749-1.188-1.117l-.53-.515-1.396-1.364-1.405,1.363c-1.492,1.443-2.716,2.605-3.867,3.652-2.455,2.249-4.717,4.224-6.905,6.037-2.469,2.042-4.724,3.808-6.879,5.393,1.584-2.167,3.343-4.429,5.369-6.899,1.806-2.195,3.772-4.457,6.012-6.927,1.813-1.987,3.819-4.101,6.328-6.639l1.338-1.363,1.329,1.351,3.229,3.278c.369.395.745.789,1.115,1.184.671.703,1.356,1.432,2.021,2.154,2.417,2.649,4.338,4.844,6.037,6.905,2.055,2.483,3.835,4.758,5.427,6.933-2.181-1.591-4.462-3.363-6.952-5.409Z"/>
            <path class="cls-7" d="M74.091,68.257c1.975,2.389,4.023,4.697,6.104,6.978,1.041,1.137,2.115,2.248,3.169,3.372l3.243,3.298,2.759,2.81,2.783-2.82c2.161-2.195,4.301-4.417,6.374-6.699,2.08-2.282,4.113-4.611,6.079-7.001,1.966-2.396,3.885-4.839,5.716-7.368,1.818-2.536,3.596-5.12,5.172-7.904-2.778,1.58-5.355,3.367-7.885,5.201-2.523,1.841-4.959,3.762-7.348,5.736-2.389,1.975-4.704,4.023-6.978,6.104-1.325,1.209-2.622,2.444-3.914,3.693l-.544-.528c-1.128-1.05-2.235-2.12-3.383-3.157-2.282-2.073-4.604-4.113-7.001-6.079-2.396-1.966-4.839-3.885-7.368-5.71-2.536-1.825-5.119-3.596-7.91-5.166,1.58,2.778,3.367,5.355,5.194,7.891,1.841,2.523,3.762,4.959,5.736,7.348ZM77.168,65.451c2.067,1.692,4.262,3.604,6.92,6.012.725.655,1.457,1.344,2.162,2.007.396.375.792.742,1.188,1.117l.524.508,1.403,1.371,1.405-1.363c1.485-1.443,2.716-2.605,3.867-3.653,2.455-2.256,4.717-4.23,6.898-6.037,2.469-2.042,4.731-3.808,6.886-5.394-1.584,2.161-3.343,4.422-5.369,6.899-1.806,2.188-3.772,4.457-6.012,6.927-1.812,1.987-3.819,4.101-6.327,6.639l-1.344,1.363-1.323-1.351-3.229-3.278c-.369-.395-.745-.789-1.115-1.184-.671-.702-1.356-1.432-2.021-2.154-2.417-2.649-4.338-4.844-6.037-6.905-2.055-2.482-3.835-4.758-5.434-6.933,2.188,1.591,4.463,3.363,6.959,5.409Z"/>
            <path class="cls-7" d="M75.232,98.585c1.144-1.041,2.248-2.115,3.379-3.169l3.298-3.243,2.803-2.759-2.813-2.776c-2.195-2.167-4.417-4.308-6.706-6.381-2.282-2.08-4.605-4.113-7.001-6.079-2.396-1.966-4.839-3.885-7.368-5.71-2.536-1.825-5.12-3.603-7.904-5.172,1.587,2.778,3.374,5.348,5.201,7.885,1.841,2.523,3.768,4.959,5.743,7.341,1.975,2.389,4.016,4.704,6.104,6.985,1.209,1.318,2.444,2.616,3.693,3.907l-.535.544c-1.05,1.128-2.113,2.242-3.15,3.383-2.073,2.289-4.12,4.605-6.079,7.001-1.966,2.396-3.884,4.839-5.716,7.368-1.818,2.543-3.596,5.126-5.166,7.91,2.785-1.58,5.362-3.367,7.891-5.194,2.523-1.841,4.965-3.762,7.348-5.736,2.389-1.975,4.704-4.023,6.978-6.104ZM60.045,108.571c1.584-2.187,3.356-4.462,5.402-6.952,1.692-2.067,3.604-4.269,6.019-6.927.655-.725,1.338-1.457,2.007-2.161.368-.396.742-.792,1.11-1.188l.515-.524,1.364-1.396-1.356-1.405c-1.443-1.492-2.605-2.723-3.659-3.867-2.249-2.462-4.224-4.717-6.037-6.905-2.035-2.469-3.808-4.724-5.394-6.879,2.167,1.578,4.429,3.336,6.899,5.362,2.194,1.805,4.463,3.771,6.927,6.012,1.994,1.812,4.102,3.819,6.646,6.327l1.363,1.345-1.351,1.329-3.285,3.223c-.395.376-.789.745-1.184,1.121-.703.665-1.432,1.356-2.154,2.014-2.642,2.417-4.837,4.338-6.898,6.037-2.489,2.055-4.764,3.835-6.933,5.434Z"/>
            <path class="cls-7" d="M114.92,100.255c-1.975-2.382-4.016-4.704-6.104-6.978-1.209-1.325-2.444-2.623-3.693-3.907l.528-.544c1.057-1.128,2.12-2.242,3.157-3.383,2.073-2.289,4.12-4.605,6.079-7.001,1.966-2.396,3.885-4.839,5.716-7.368,1.818-2.543,3.589-5.126,5.166-7.91-2.785,1.58-5.362,3.361-7.898,5.195-2.523,1.834-4.959,3.762-7.341,5.736-2.395,1.968-4.704,4.023-6.985,6.104-1.137,1.041-2.248,2.115-3.372,3.169l-3.298,3.243-2.803,2.759,2.813,2.776c2.195,2.167,4.417,4.301,6.699,6.381,2.289,2.073,4.611,4.113,7.007,6.079,2.396,1.966,4.839,3.878,7.368,5.71,2.536,1.825,5.12,3.596,7.904,5.172-1.587-2.778-3.374-5.355-5.201-7.885-1.841-2.523-3.768-4.959-5.743-7.348ZM111.869,103.049c-2.195-1.799-4.463-3.765-6.927-6.012-1.994-1.806-4.102-3.819-6.646-6.321l-1.363-1.345,1.351-1.329,3.285-3.223c.395-.376.789-.745,1.177-1.121.709-.665,1.432-1.356,2.154-2.014,2.65-2.424,4.844-4.338,6.905-6.044,2.489-2.055,4.758-3.835,6.933-5.427-1.591,2.181-3.362,4.463-5.402,6.952-1.698,2.067-3.604,4.269-6.018,6.927-.655.725-1.338,1.45-2.007,2.155-.368.396-.742.792-1.11,1.195l-.515.524-1.365,1.396,1.356,1.405c1.443,1.492,2.605,2.716,3.659,3.867,2.249,2.462,4.224,4.717,6.037,6.905,2.035,2.469,3.808,4.724,5.387,6.879-2.161-1.578-4.422-3.336-6.892-5.369Z"/>
          </g>
          <path class="cls-7" d="M76.283,53.302c7.19-7.216,18.869-7.238,26.086-.047h0s2.415-2.423,2.415-2.423l-15.491-15.435-15.435,15.492,2.424,2.415h0Z"/>
          <path class="cls-7" d="M127.895,73.858l-2.415,2.424h0c7.216,7.191,7.238,18.87.047,26.086h0s2.424,2.416,2.424,2.416l15.435-15.492-15.492-15.435Z"/>
          <path class="cls-7" d="M53.302,102.5c-7.217-7.19-7.238-18.869-.047-26.086h0s-2.424-2.416-2.424-2.416l-15.435,15.491,15.491,15.435,2.415-2.424h0Z"/>
          <path class="cls-7" d="M102.5,125.481c-7.19,7.217-18.869,7.238-26.086.047h0s-2.415,2.423-2.415,2.423l15.491,15.435,15.435-15.491-2.424-2.415h0Z"/>
          <g>
            <path class="cls-2" d="M89.473,128.682c2.734-.009,4.898-.796,6.231-1.455l-.891-1.802c-1.142.564-2.997,1.239-5.362,1.246h0c-2.348.002-4.205-.667-5.349-1.227l-.884,1.805c1.328.651,3.479,1.425,6.211,1.432h.016s.029,0,.029,0Z"/>
            <path class="cls-2" d="M83.079,51.556l.891,1.802c1.142-.564,2.997-1.239,5.362-1.246h0c2.349-.002,4.205.666,5.349,1.227l.884-1.805c-1.328-.651-3.479-1.425-6.211-1.432h-.045c-2.734.008-4.897.796-6.23,1.454Z"/>
            <path class="cls-2" d="M51.533,83.217c-.654,1.337-1.433,3.504-1.431,6.255h.121s-.121.001-.121.001c.009,2.732.796,4.896,1.455,6.231l1.803-.891c-.565-1.143-1.24-2.999-1.246-5.363h0c0-2.347.667-4.205,1.227-5.35l-1.806-.884Z"/>
            <path class="cls-2" d="M127.227,83.079l-1.803.891c.565,1.144,1.24,2.999,1.246,5.363h0c0,2.347-.667,4.205-1.228,5.35l1.806.884c.654-1.337,1.434-3.504,1.431-6.255l-.121.002.122-.003c-.009-2.732-.796-4.896-1.455-6.231Z"/>
          </g>
          <g>
            <path class="cls-2" d="M111.856,88.641c-.187.188-.294.443-.294.711,0,.268.108.522.296.71.188.187.443.294.711.294.134,0,.261-.027.382-.075.121-.054.234-.128.328-.222.094-.094.167-.201.221-.329.047-.12.073-.248.073-.382,0-.268-.108-.523-.296-.71-.376-.374-1.053-.373-1.421.003Z"/>
            <path class="cls-2" d="M115.47,89.345c.001.556.451,1.004,1.007,1.003.556,0,1.004-.451,1.004-1.007-.001-.556-.451-1.004-1.007-1.003-.556.001-1.004.451-1.003,1.007Z"/>
            <path class="cls-2" d="M119.67,88.626c-.181.188-.288.443-.287.711,0,.268.101.522.29.71.1.093.208.167.328.221.121.047.255.074.389.073.268,0,.516-.108.71-.297.187-.188.294-.443.293-.711,0-.268-.108-.523-.296-.71-.376-.374-1.046-.373-1.427.003Z"/>
            <path class="cls-2" d="M58.397,90.454c.268,0,.522-.108.709-.297.194-.188.294-.443.294-.711,0-.268-.108-.523-.296-.71-.228-.234-.577-.341-.905-.273-.067.014-.127.034-.188.054-.06.027-.12.061-.174.095-.054.04-.107.081-.154.127-.188.188-.294.443-.294.711,0,.268.108.522.296.71.094.093.208.167.329.221.121.047.248.074.382.073Z"/>
            <path class="cls-2" d="M63.313,89.44c0-.556-.458-1.004-1.007-1.003-.556.001-1.004.451-1.003,1.007,0,.556.451,1.004,1.007,1.003.549-.001,1.004-.451,1.003-1.007Z"/>
            <path class="cls-2" d="M66.599,90.365c.127-.054.234-.128.328-.222.187-.188.294-.443.294-.711,0-.262-.108-.523-.296-.71-.376-.374-1.046-.373-1.421.003-.188.188-.294.449-.294.711,0,.268.108.522.296.71.188.188.443.294.711.294.134,0,.261-.027.382-.075Z"/>
          </g>
        </g>
        <g class="cls-5">
          <path class="cls-1" d="M97.245,49.457c-19.42-4.091-39.653,7.785-46.253,26.406-7.299,20.594,3.642,43.963,24.048,51.663,22.329,8.427,47.637-4.901,53.682-27.67,5.144-19.376-5.102-40.134-23.536-47.933-1.905-.806-7.252-2.321-7.941-2.466Z"/>
        </g>
      </g>
    </g>
  </g>
</svg>