<svg width="45" height="45" viewBox="0 0 45 45" fill="none" xmlns="http://www.w3.org/2000/svg">
<rect x="0.5" y="0.5" width="44" height="44" fill="#00FFEE" fill-opacity="0.1" stroke="#460FD1"/>
<path d="M9.11 34.27C8.15 34.19 7.4 33.88 6.86 33.34C6.32 32.8 6.05 32.12 6.05 31.3C6.05 30.66 6.21 29.99 6.53 29.29L13.31 14.2C13.53 13.7 13.81 13.33 14.15 13.09C14.51 12.85 14.95 12.73 15.47 12.73C15.99 12.73 16.42 12.85 16.76 13.09C17.12 13.33 17.41 13.7 17.63 14.2L24.41 29.29C24.73 29.99 24.89 30.65 24.89 31.27C24.89 32.11 24.62 32.8 24.08 33.34C23.54 33.88 22.78 34.19 21.8 34.27L19.28 28.78H11.63L9.11 34.27ZM17.93 25L14.84 17.32L14.42 17.5L15.23 19.51L12.95 25H17.93ZM33.2626 34.27C32.0226 34.27 30.8726 34.02 29.8126 33.52C28.7726 33.02 27.9426 32.34 27.3226 31.48C26.7026 30.62 26.3926 29.66 26.3926 28.6V24.76C26.3926 23.64 26.7026 22.62 27.3226 21.7C27.9626 20.76 28.8126 20.03 29.8726 19.51C30.9326 18.99 32.0726 18.73 33.2926 18.73C34.4926 18.73 35.5926 18.98 36.5926 19.48C37.6126 19.96 38.4126 20.65 38.9926 21.55C39.5726 22.43 39.8626 23.43 39.8626 24.55V26.17C39.8626 26.65 39.6826 27.06 39.3226 27.4C38.9626 27.72 38.5026 27.88 37.9426 27.88H30.3826V28.3C30.3826 29.1 30.6226 29.76 31.1026 30.28C31.6026 30.78 32.3326 31.03 33.2926 31.03C34.2326 31.03 34.9226 30.83 35.3626 30.43C35.8026 30.01 36.0226 29.49 36.0226 28.87C36.4226 28.83 36.7226 28.81 36.9226 28.81C37.7426 28.81 38.3726 28.98 38.8126 29.32C39.2526 29.66 39.4726 30.16 39.4726 30.82C39.4726 31.36 39.2026 31.9 38.6626 32.44C38.1226 32.98 37.3726 33.42 36.4126 33.76C35.4726 34.1 34.4226 34.27 33.2626 34.27ZM36.1426 24.97V24.55C36.1426 23.75 35.8726 23.12 35.3326 22.66C34.8126 22.18 34.1226 21.94 33.2626 21.94C32.4026 21.94 31.7026 22.18 31.1626 22.66C30.6426 23.12 30.3826 23.75 30.3826 24.55V24.97H36.1426Z" fill="#460FD1"/>
</svg>
