<svg width="45" height="45" viewBox="0 0 45 45" fill="none" xmlns="http://www.w3.org/2000/svg">
<rect x="0.5" y="0.5" width="44" height="44" fill="#00FFEE" fill-opacity="0.1" stroke="#FF0049"/>
<path d="M36.9062 23.4784C36.7184 22.1591 36.2609 20.908 35.5457 19.7601C34.9221 18.7584 34.1218 17.8674 33.1666 17.1102L33.1692 17.1078L23.1375 9.41349C23.1302 9.40713 23.1227 9.40114 23.1149 9.39554C22.7813 9.14039 22.3298 9 21.8438 9C21.3572 9 20.888 9.14071 20.5232 9.39635C20.131 9.66994 19.9069 10.033 19.8912 10.4194C19.8769 10.7799 20.0491 11.1268 20.3774 11.3972C21.023 11.9059 21.6672 12.4257 22.3123 12.9461C22.9383 13.4514 23.5834 13.9718 24.2253 14.4784L11.9381 14.4701C10.5329 14.4701 9.57609 15.129 9.37927 16.2322C9.29279 16.7154 9.4454 17.2467 9.78656 17.6536C10.1485 18.085 10.674 18.3229 11.2663 18.3229L12.203 18.3236C13.497 18.3236 14.7967 18.3204 16.0947 18.3172L17.3325 18.3144L6.18072 26.5533L6.13645 26.5856C5.51354 27.0624 5.10575 27.7309 5.01776 28.4194C4.95107 28.9411 5.07293 29.4178 5.37033 29.7985C5.72477 30.2524 6.27816 30.5021 6.92868 30.5021C7.56774 30.5021 8.21982 30.2602 8.76563 29.8199L14.7878 24.8984C14.762 25.1387 14.7308 25.4913 14.7343 25.7472C14.7411 26.1523 14.8714 26.9653 15.0776 27.6253C15.5036 28.9817 16.2214 30.2227 17.2107 31.3126C18.24 32.4465 19.4937 33.3456 20.9367 33.9842C22.4622 34.658 24.102 35 25.8109 35H25.8268C27.5411 34.9959 29.1862 34.6484 30.7166 33.967C32.1619 33.3207 33.4151 32.418 34.4406 31.2843C35.4286 30.1889 36.1453 28.9458 36.5706 27.5905C36.781 26.9196 36.9157 26.2274 36.9724 25.5267C37.0249 24.8494 37.0023 24.1603 36.9062 23.4784ZM25.9359 29.9796C22.1697 29.9796 19.1156 27.2513 19.1156 23.8857C19.1156 20.5204 22.1698 17.7921 25.9359 17.7921C29.7021 17.7921 32.7558 20.5204 32.7558 23.8857C32.756 27.2513 29.7021 29.9796 25.9359 29.9796ZM29.869 23.3502C29.9245 24.3547 29.5227 25.2874 28.8172 25.9779C28.0995 26.6813 27.0753 27.1231 25.9301 27.1231C24.7854 27.1231 23.7611 26.6813 23.0431 25.9779C22.3378 25.2874 21.9369 24.3548 21.9921 23.351C22.0462 22.3752 22.5228 21.5139 23.2407 20.9041C23.9467 20.3044 24.8946 19.9386 25.93 19.9386C26.9656 19.9386 27.9133 20.3046 28.6193 20.9041C29.3376 21.5139 29.8143 22.3746 29.869 23.3502Z" fill="#FF0049"/>
</svg>
