<svg width="45" height="45" viewBox="0 0 45 45" fill="none" xmlns="http://www.w3.org/2000/svg">
<rect x="0.5" y="0.5" width="44" height="44" fill="#00FFEE" fill-opacity="0.1" stroke="#00FFEE"/>
<path d="M13.9165 29.0208V34.6875C13.9165 34.9818 14.1534 35.2187 14.4478 35.2187H33.5728C33.8671 35.2187 34.104 34.9818 34.104 34.6875V11.3125C34.104 11.0182 33.8671 10.7812 33.5728 10.7812H14.4478C14.1534 10.7812 13.9165 11.0182 13.9165 11.3125V16.9792" stroke="#00FFEE" stroke-width="1.3" stroke-linecap="round"/>
<path d="M19.4064 16.9792H8.42725C8.13384 16.9792 7.896 17.2171 7.896 17.5105V28.4897C7.896 28.7831 8.13384 29.0209 8.42725 29.0209H19.4064C19.6998 29.0209 19.9377 28.7831 19.9377 28.4897V17.5105C19.9377 17.2171 19.6998 16.9792 19.4064 16.9792Z" stroke="#00FFEE" stroke-width="1.3" stroke-linecap="round"/>
<path d="M28.5776 35.1701V10.8123M13.9478 16.4111H34.1043M34.1043 23H19.9957M33.9272 29.5893H13.9478M11.8804 20.5208L15.9533 25.4792M15.9533 20.5208L11.8804 25.4792" stroke="#00FFEE" stroke-width="1.3" stroke-linecap="round" stroke-linejoin="round"/>
</svg>
