<svg width="45" height="45" viewBox="0 0 45 45" fill="none" xmlns="http://www.w3.org/2000/svg">
<rect x="0.5" y="0.5" width="44" height="44" fill="#00FFEE" fill-opacity="0.1" stroke="#00FFEE"/>
<path fill-rule="evenodd" clip-rule="evenodd" d="M21.7641 9.49027H18.118C16.1043 9.49027 14.4719 11.1348 14.4719 13.1634C14.4719 15.192 16.1043 16.8366 18.118 16.8366H21.7641V9.49027ZM21.7641 7H24.236H27.8821C31.2611 7 34 9.75944 34 13.1634C34 15.1722 33.0463 16.9565 31.5699 18.0817C33.0463 19.2069 34 20.9913 34 23C34 26.404 31.2611 29.1634 27.8821 29.1634C26.5159 29.1634 25.2543 28.7123 24.236 27.9498V29.1634V32.8366C24.236 36.2405 21.4969 39 18.118 39C14.7391 39 12 36.2405 12 32.8366C12 30.8277 12.9539 29.0435 14.4302 27.9183C12.9539 26.793 12 25.0087 12 23C12 20.9913 12.9539 19.2069 14.4302 18.0817C12.9539 16.9565 12 15.1722 12 13.1634C12 9.75944 14.7391 7 18.118 7H21.7641ZM24.236 9.49027V16.8366H27.8821C29.8959 16.8366 31.5281 15.192 31.5281 13.1634C31.5281 11.1348 29.8959 9.49027 27.8821 9.49027H24.236ZM18.118 26.6731H21.7641V23.0095V23V22.9905V19.3269H18.118C16.1043 19.3269 14.4719 20.9714 14.4719 23C14.4719 25.0238 16.0965 26.6653 18.1036 26.6731L18.118 26.6731ZM14.4719 32.8366C14.4719 30.8127 16.0965 29.1713 18.1036 29.1634L18.118 29.1634H21.7641V32.8366C21.7641 34.8652 20.1317 36.5097 18.118 36.5097C16.1043 36.5097 14.4719 34.8652 14.4719 32.8366ZM24.236 22.9927C24.24 20.9674 25.8709 19.3269 27.8821 19.3269C29.8959 19.3269 31.5281 20.9714 31.5281 23C31.5281 25.0286 29.8959 26.6732 27.8821 26.6732C25.8709 26.6732 24.24 25.0326 24.236 23.0073V22.9927Z" fill="#00FFEE"/>
</svg>
