<svg width="45" height="45" viewBox="0 0 45 45" fill="none" xmlns="http://www.w3.org/2000/svg">
<rect x="0.5" y="0.5" width="44" height="44" fill="#00FFEE" fill-opacity="0.1" stroke="#FF8418"/>
<path d="M12.11 34.27C11.15 34.19 10.4 33.88 9.86 33.34C9.32 32.8 9.05 32.12 9.05 31.3C9.05 30.66 9.21 29.99 9.53 29.29L16.31 14.2C16.53 13.7 16.81 13.33 17.15 13.09C17.51 12.85 17.95 12.73 18.47 12.73C18.99 12.73 19.42 12.85 19.76 13.09C20.12 13.33 20.41 13.7 20.63 14.2L27.41 29.29C27.73 29.99 27.89 30.65 27.89 31.27C27.89 32.11 27.62 32.8 27.08 33.34C26.54 33.88 25.78 34.19 24.8 34.27L22.28 28.78H14.63L12.11 34.27ZM20.93 25L17.84 17.32L17.42 17.5L18.23 19.51L15.95 25H20.93ZM33.2673 17.59C32.5073 17.59 31.8673 17.37 31.3473 16.93C30.8473 16.47 30.5973 15.88 30.5973 15.16C30.5973 14.44 30.8473 13.86 31.3473 13.42C31.8673 12.96 32.5073 12.73 33.2673 12.73C34.0273 12.73 34.6573 12.96 35.1573 13.42C35.6773 13.86 35.9373 14.44 35.9373 15.16C35.9373 15.88 35.6773 16.47 35.1573 16.93C34.6573 17.37 34.0273 17.59 33.2673 17.59ZM31.1973 21.13C31.1973 20.27 31.5373 19.66 32.2173 19.3C32.8973 18.92 33.9273 18.73 35.3073 18.73V31.87C35.3073 32.73 34.9673 33.35 34.2873 33.73C33.6073 34.09 32.5773 34.27 31.1973 34.27V21.13Z" fill="#FF8418"/>
</svg>
