<svg width="45" height="45" viewBox="0 0 45 45" fill="none" xmlns="http://www.w3.org/2000/svg">
<rect x="0.5" y="0.5" width="44" height="44" fill="#00FFEE" fill-opacity="0.1" stroke="#008CFF"/>
<path d="M6.65 15.01C6.65 14.43 6.86 13.95 7.28 13.57C7.72 13.19 8.25 13 8.87 13H17.06C18.54 13 19.85 13.3 20.99 13.9C22.13 14.48 23.01 15.3 23.63 16.36C24.27 17.42 24.59 18.65 24.59 20.05C24.59 21.47 24.28 22.72 23.66 23.8C23.04 24.86 22.16 25.68 21.02 26.26C19.9 26.84 18.58 27.13 17.06 27.13H11.06V31.09C11.06 32.13 10.68 32.92 9.92 33.46C9.18 34 8.09 34.27 6.65 34.27V15.01ZM17.06 23.32C18.06 23.32 18.83 23.04 19.37 22.48C19.91 21.9 20.18 21.08 20.18 20.02C20.18 19 19.91 18.21 19.37 17.65C18.83 17.09 18.06 16.81 17.06 16.81H11.06V23.32H17.06ZM32.2866 34.27C30.2466 34.27 28.6366 33.93 27.4566 33.25C26.2766 32.55 25.6866 31.62 25.6866 30.46C25.6866 29.94 25.9066 29.5 26.3466 29.14C26.8066 28.78 27.5366 28.6 28.5366 28.6C28.6966 29.4 29.0966 30.03 29.7366 30.49C30.3766 30.93 31.1266 31.15 31.9866 31.15C32.9866 31.15 33.7566 31.03 34.2966 30.79C34.8566 30.55 35.1366 30.2 35.1366 29.74C35.1366 29.34 34.9166 28.99 34.4766 28.69C34.0366 28.39 33.1566 28.08 31.8366 27.76C30.2966 27.4 29.0966 27.04 28.2366 26.68C27.3966 26.3 26.7766 25.83 26.3766 25.27C25.9766 24.71 25.7766 23.97 25.7766 23.05C25.7766 21.75 26.3166 20.71 27.3966 19.93C28.4966 19.13 30.0266 18.73 31.9866 18.73C33.9066 18.73 35.4666 19.06 36.6666 19.72C37.8666 20.38 38.4666 21.26 38.4666 22.36C38.4666 22.92 38.2566 23.33 37.8366 23.59C37.4166 23.83 36.7166 23.96 35.7366 23.98C35.4766 23.22 35.0766 22.66 34.5366 22.3C34.0166 21.92 33.2666 21.73 32.2866 21.73C31.5866 21.73 30.9666 21.85 30.4266 22.09C29.8866 22.33 29.6166 22.62 29.6166 22.96C29.6166 23.34 29.8366 23.64 30.2766 23.86C30.7366 24.08 31.4966 24.3 32.5566 24.52C34.8566 25.02 36.5066 25.68 37.5066 26.5C38.5266 27.32 39.0366 28.43 39.0366 29.83C39.0366 30.69 38.7666 31.46 38.2266 32.14C37.6866 32.82 36.9066 33.35 35.8866 33.73C34.8666 34.09 33.6666 34.27 32.2866 34.27Z" fill="#008CFF"/>
</svg>
