<svg width="45" height="45" viewBox="0 0 45 45" fill="none" xmlns="http://www.w3.org/2000/svg">
<rect x="0.5" y="0.5" width="44" height="44" fill="#00FFEE" fill-opacity="0.1" stroke="#00FFEE"/>
<path fill-rule="evenodd" clip-rule="evenodd" d="M19.8421 9C19.5071 9 19.1858 9.13409 18.9489 9.37277L11.37 17.0091C11.1331 17.2478 11 17.5715 11 17.9091V33.1818C11 35.2906 12.6966 37 14.7895 37H21.1053C21.8029 37 22.3684 36.4302 22.3684 35.7273C22.3684 35.0243 21.8029 34.4545 21.1053 34.4545H14.7895C14.0919 34.4545 13.5263 33.8847 13.5263 33.1818V19.1818H19.8421C20.5397 19.1818 21.1053 18.612 21.1053 17.9091V11.5455H29.9474C30.645 11.5455 31.2105 12.1153 31.2105 12.8182V19.1818C31.2105 19.8847 31.776 20.4545 32.4737 20.4545C33.1713 20.4545 33.7368 19.8847 33.7368 19.1818V12.8182C33.7368 10.7095 32.0403 9 29.9474 9H19.8421ZM18.5789 16.6364H15.3127L18.5789 13.3454V16.6364ZM26.1579 23C25.4603 23 24.8947 23.5698 24.8947 24.2727V29.3636V33.1818C24.8947 33.8847 25.4603 34.4545 26.1579 34.4545C26.8555 34.4545 27.4211 33.8847 27.4211 33.1818V30.6364H31.2105C33.3035 30.6364 35 28.927 35 26.8182C35 24.7094 33.3035 23 31.2105 23H26.1579ZM31.2105 28.0909H27.4211V25.5455H31.2105C31.9082 25.5455 32.4737 26.1153 32.4737 26.8182C32.4737 27.5211 31.9082 28.0909 31.2105 28.0909Z" fill="#00FFEE"/>
</svg>
