<svg width="45" height="45" viewBox="0 0 45 45" fill="none" xmlns="http://www.w3.org/2000/svg">
<rect x="0.5" y="0.5" width="44" height="44" fill="#F3FFFE" fill-opacity="0.1" stroke="#460FD1"/>
<path d="M8.65 15.01C8.65 14.43 8.86 13.95 9.28 13.57C9.72 13.19 10.25 13 10.87 13H19.06C20.54 13 21.85 13.3 22.99 13.9C24.13 14.48 25.01 15.3 25.63 16.36C26.27 17.42 26.59 18.65 26.59 20.05C26.59 21.47 26.28 22.72 25.66 23.8C25.04 24.86 24.16 25.68 23.02 26.26C21.9 26.84 20.58 27.13 19.06 27.13H13.06V31.09C13.06 32.13 12.68 32.92 11.92 33.46C11.18 34 10.09 34.27 8.65 34.27V15.01ZM19.06 23.32C20.06 23.32 20.83 23.04 21.37 22.48C21.91 21.9 22.18 21.08 22.18 20.02C22.18 19 21.91 18.21 21.37 17.65C20.83 17.09 20.06 16.81 19.06 16.81H13.06V23.32H19.06ZM36.3796 22.27C35.1796 22.27 34.2096 22.58 33.4696 23.2C32.7296 23.82 32.3596 24.6 32.3596 25.54V31.87C32.3596 32.73 32.0196 33.35 31.3396 33.73C30.6796 34.09 29.6496 34.27 28.2496 34.27V21.85C28.2496 20.85 28.5796 20.08 29.2396 19.54C29.8996 19 30.8796 18.73 32.1796 18.73V20.5C31.8796 20.82 31.6296 21.16 31.4296 21.52L31.6396 21.64C32.8996 19.7 34.4696 18.73 36.3496 18.73C37.2496 18.73 37.9296 18.97 38.3896 19.45C38.8496 19.93 39.0796 20.54 39.0796 21.28C39.0796 21.84 38.9296 22.33 38.6296 22.75C38.0696 22.43 37.3196 22.27 36.3796 22.27Z" fill="#460FD1"/>
</svg>
