<svg width="45" height="45" viewBox="0 0 45 45" fill="none" xmlns="http://www.w3.org/2000/svg">
<rect x="0.5" y="0.5" width="44" height="44" fill="#00FFEE" fill-opacity="0.1" stroke="#00FFEE"/>
<path d="M28.1566 8H13.5609C12.581 8 11.7827 8.7986 11.7827 9.77844V35.2212C11.7827 36.2026 12.5809 36.9999 13.5609 36.9999H31.4393C32.4202 36.9999 33.2175 36.2026 33.2175 35.2212V13.4991L28.1566 8ZM28.5763 10.6612L30.7945 13.0721H28.5763V10.6612ZM31.7242 35.2213C31.7242 35.378 31.5959 35.5066 31.4386 35.5066H13.5609C13.4036 35.5066 13.2761 35.378 13.2761 35.2213V9.77844C13.2761 9.62142 13.4036 9.49417 13.5609 9.49417H27.0821V13.8191C27.0821 14.2309 27.4175 14.5647 27.8295 14.5647H31.7241L31.7242 35.2213ZM16.1259 17.9246L14.5674 11.7822H15.6996L16.4198 14.8508C16.5213 15.2794 16.6189 15.7139 16.7028 16.1151C16.7986 15.7033 16.9139 15.2663 17.0277 14.8381L17.8364 11.7825H18.8755L19.6131 14.8594C19.7088 15.261 19.8038 15.6755 19.884 16.076C19.9665 15.7196 20.0579 15.3539 20.1519 14.9772L20.1866 14.8406L20.987 11.7829H22.096L20.3552 17.9252H19.3178L18.554 14.7717C18.4596 14.3841 18.3771 14.029 18.309 13.6814C18.2294 14.0276 18.1365 14.3818 18.0229 14.7779L17.1624 17.9252H16.1259V17.9246H16.1259ZM22.9509 16.6191H29.634C29.9429 16.6191 30.1935 16.8699 30.1935 17.1786C30.1935 17.4875 29.9429 17.7381 29.634 17.7381H22.9509C22.642 17.7381 22.3914 17.4875 22.3914 17.1786C22.3914 16.8699 22.6421 16.6191 22.9509 16.6191ZM30.1936 20.9146C30.1936 21.2234 29.943 21.4741 29.6341 21.4741H15.7241C15.4153 21.4741 15.1646 21.2234 15.1646 20.9146C15.1646 20.6056 15.4152 20.3551 15.7241 20.3551H29.6341C29.9429 20.3551 30.1936 20.6057 30.1936 20.9146ZM30.1936 24.2249C30.1936 24.5338 29.943 24.7844 29.6341 24.7844H15.7241C15.4153 24.7844 15.1646 24.5338 15.1646 24.2249C15.1646 23.916 15.4152 23.6654 15.7241 23.6654H29.6341C29.9429 23.6654 30.1936 23.916 30.1936 24.2249ZM30.1936 27.5352C30.1936 27.8441 29.943 28.0947 29.6341 28.0947H15.7241C15.4153 28.0947 15.1646 27.8441 15.1646 27.5352C15.1646 27.2264 15.4152 26.9757 15.7241 26.9757H29.6341C29.9429 26.9757 30.1936 27.2264 30.1936 27.5352ZM30.1936 30.8922C30.1936 31.2011 29.943 31.4517 29.6341 31.4517H15.7241C15.4153 31.4517 15.1646 31.2011 15.1646 30.8922C15.1646 30.5833 15.4152 30.3327 15.7241 30.3327H29.6341C29.9429 30.3327 30.1936 30.5833 30.1936 30.8922Z" fill="#00FFEE"/>
</svg>
